<?xml version="1.0" standalone="no"?>
<!DOCTYPE svg PUBLIC "-//W3C//DTD SVG 20010904//EN"
 "http://www.w3.org/TR/2001/REC-SVG-20010904/DTD/svg10.dtd">
<svg version="1.0" xmlns="http://www.w3.org/2000/svg"
 width="500.000000pt" height="500.000000pt" viewBox="0 0 500.000000 500.000000"
 preserveAspectRatio="xMidYMid meet">
<metadata>
Created by potrace 1.15, written by Peter Selinger 2001-2017
</metadata>
<g transform="translate(0.000000,500.000000) scale(0.100000,-0.100000)"
fill="#000000" stroke="none">
<path d="M2355 4890 c-174 -27 -176 -29 -640 -489 -1445 -1435 -1460 -1450
-1498 -1531 -19 -41 -40 -93 -47 -115 -12 -42 -9 -245 5 -300 16 -67 71 -162
123 -214 l54 -54 199 7 199 6 0 -845 c0 -590 3 -859 11 -892 21 -89 77 -189
140 -252 59 -58 162 -121 199 -121 10 0 22 -4 25 -10 6 -10 1185 -15 1185 -6
0 3 -13 26 -29 53 -109 181 -239 414 -245 438 -23 100 -28 139 -23 220 11 181
64 275 331 587 98 114 121 131 152 110 27 -18 160 -214 201 -297 93 -184 106
-240 106 -445 1 -216 7 -196 -159 -483 -57 -98 -104 -180 -104 -183 0 -2 260
-4 577 -4 563 0 578 0 637 21 177 63 301 213 332 402 11 64 14 263 14 894 l0
811 198 -5 197 -6 46 41 c49 44 110 147 130 223 7 24 14 91 16 149 7 176 -32
265 -205 468 -156 182 -340 404 -435 524 l-77 97 -2 428 c-3 336 -6 434 -17
458 -44 98 -61 124 -106 170 -52 53 -134 105 -166 105 -10 0 -21 5 -24 10 -8
12 -199 13 -223 1 -9 -5 -41 -19 -71 -32 -125 -55 -227 -205 -232 -344 -1 -27
-4 -54 -7 -58 -2 -5 -86 72 -186 171 -163 162 -241 226 -316 259 -72 32 -183
46 -265 33z m185 -258 c32 -15 127 -104 330 -307 157 -158 297 -293 312 -301
36 -19 93 -18 124 2 49 32 54 58 54 259 0 211 8 249 60 300 71 69 184 69 252
-1 56 -57 56 -62 57 -522 1 -384 3 -427 19 -455 19 -35 154 -217 213 -287 21
-25 129 -152 239 -284 111 -131 211 -257 222 -280 31 -58 32 -235 3 -285 l-20
-33 -210 1 c-213 2 -253 -4 -301 -39 -11 -8 -24 -22 -30 -30 -5 -9 -11 -396
-14 -956 l-5 -941 -30 -48 c-68 -110 -136 -128 -465 -123 l-225 3 0 115 c0 99
3 122 23 164 64 134 76 178 98 341 21 165 3 313 -64 520 -102 311 -328 628
-635 890 -85 73 -277 205 -297 205 -15 0 -19 -14 -25 -77 -11 -123 -71 -275
-179 -454 -31 -50 -56 -94 -56 -96 0 -2 -16 -26 -35 -53 -19 -27 -35 -52 -35
-54 0 -2 -24 -40 -54 -83 -29 -43 -61 -91 -70 -108 -9 -16 -26 -46 -38 -65
-29 -47 -80 -152 -106 -220 -66 -166 -89 -378 -57 -513 20 -87 36 -139 47
-152 4 -5 8 -14 8 -21 0 -7 15 -39 34 -72 31 -55 34 -68 36 -154 1 -51 2 -99
1 -106 -1 -18 -507 -12 -565 7 -43 14 -122 83 -140 121 -8 18 -12 293 -16 960
-6 1048 0 978 -80 1017 -43 22 -56 23 -263 22 l-219 -1 -16 28 c-24 44 -24
245 1 299 13 28 237 258 745 763 959 954 1118 1106 1168 1120 58 16 152 9 204
-16z"/>
</g>
</svg>
